HIERARCHY
ROOT Hips
{
	OFFSET -0.001795 -0.223333 0.028219
	CHANNELS 6 Xposition Yposition Zposition Zrotation Yrotation Xrotation 
	JOINT LeftUpLeg
	{
		OFFSET 0.069520 -0.091406 -0.006815
		CHANNELS 3 Zrotation Yrotation Xrotation
		JOINT LeftLeg
		{
			OFFSET 0.034277 -0.375199 -0.004496
			CHANNELS 3 Zrotation Yrotation Xrotation
			JOINT LeftFoot
			{
				OFFSET -0.013596 -0.397961 -0.043693
				CHANNELS 3 Zrotation Yrotation Xrotation
				JOINT LeftToe
				{
					OFFSET 0.026358 -0.055791 0.119288
					CHANNELS 3 Zrotation Yrotation Xrotation
					End Site
					{
						OFFSET 0.000000 0.000000 0.000000
					}
				}
			}
		}
	}
	JOINT RightUpLeg
	{
		OFFSET -0.067670 -0.090522 -0.004320
		CHANNELS 3 Zrotation Yrotation Xrotation
		JOINT RightLeg
		{
			OFFSET -0.038290 -0.382569 -0.008850
			CHANNELS 3 Zrotation Yrotation Xrotation
			JOINT RightFoot
			{
				OFFSET 0.015774 -0.398415 -0.042312
				CHANNELS 3 Zrotation Yrotation Xrotation
				JOINT RightToe
				{
					OFFSET -0.025372 -0.048144 0.123348
					CHANNELS 3 Zrotation Yrotation Xrotation
					End Site
					{
						OFFSET 0.000000 0.000000 0.000000
					}
				}
			}
		}
	}
	JOINT Spine
	{
		OFFSET -0.002533 0.108963 -0.026696
		CHANNELS 3 Zrotation Yrotation Xrotation
		JOINT Spine1
		{
			OFFSET 0.005487 0.135180 0.001092
			CHANNELS 3 Zrotation Yrotation Xrotation
			JOINT Spine2
			{
				OFFSET 0.001457 0.052922 0.025425
				CHANNELS 3 Zrotation Yrotation Xrotation
				JOINT Neck
				{
					OFFSET -0.002778 0.213870 -0.042857
					CHANNELS 3 Zrotation Yrotation Xrotation
					JOINT Head
					{
						OFFSET 0.005152 0.064970 0.051349
						CHANNELS 3 Zrotation Yrotation Xrotation
						End Site
						{
							OFFSET 0.000000 0.000000 0.000000
						}
					}
				}
				JOINT LeftShoulder
				{
					OFFSET 0.078845 0.121749 -0.034090
					CHANNELS 3 Zrotation Yrotation Xrotation
					JOINT LeftArm
					{
						OFFSET 0.090977 0.030469 -0.008868
						CHANNELS 3 Zrotation Yrotation Xrotation
						JOINT LeftForeArm
						{
							OFFSET 0.259612 -0.012772 -0.027456
							CHANNELS 3 Zrotation Yrotation Xrotation
							JOINT LeftHand
							{
								OFFSET 0.249234 0.008986 -0.001171
								CHANNELS 3 Zrotation Yrotation Xrotation
								End Site
								{
									OFFSET 0.000000 0.000000 0.000000
								}
							}
						}
					}
				}
				JOINT RightShoulder
				{
					OFFSET -0.081759 0.118833 -0.038615
					CHANNELS 3 Zrotation Yrotation Xrotation
					JOINT RightArm
					{
						OFFSET -0.096012 0.032551 -0.009143
						CHANNELS 3 Zrotation Yrotation Xrotation
						JOINT RightForeArm
						{
							OFFSET -0.253742 -0.013329 -0.021401
							CHANNELS 3 Zrotation Yrotation Xrotation
							JOINT RightHand
							{
								OFFSET -0.255298 0.007772 -0.005559
								CHANNELS 3 Zrotation Yrotation Xrotation
								End Site
								{
									OFFSET 0.000000 0.000000 0.000000
								}
							}
						}
					}
				}
			}
		}
	}
}
MOTION
Frames: 18
Frame Time: 0.050000
0.000000 0.960897 0.000000 -1.218250 -5.802441 -0.940017 -0.590894 0.592537 5.679208 2.111891 -0.097900 -2.975473 -3.485833 -1.629176 12.751644 0.000000 0.000000 0.000000 1.373188 -0.220729 1.692351 -2.143322 0.330418 2.003866 6.385814 9.406526 8.083089 0.000000 0.000000 0.000000 4.237110 -0.348137 4.325261 -2.158226 1.147850 5.280244 -2.282517 2.576555 -1.807117 6.798262 -3.490554 -11.071721 0.000000 0.000000 0.000000 -28.185746 -7.257051 1.298713 -44.709968 -6.286203 -2.446398 -2.799081 -22.664237 1.338737 0.000000 0.000000 0.000000 26.593016 3.523651 -0.500904 48.554187 7.059838 -1.398528 1.978237 22.826215 1.065625 0.000000 0.000000 0.000000 
-0.001390 0.960406 0.000614 -1.413110 -6.655666 -0.759789 0.045580 0.613060 6.125689 1.414096 -0.001507 -3.683665 -3.243075 -1.411134 12.554544 0.000000 0.000000 0.000000 1.832166 -0.160883 0.942935 -2.305790 0.391016 2.688679 6.482725 9.338255 8.314793 0.000000 0.000000 0.000000 4.402631 -0.355030 4.315457 -1.912002 1.032636 5.235756 -3.457250 3.350165 -1.819586 8.129962 -4.032059 -12.650987 0.000000 0.000000 0.000000 -27.402022 -7.453932 1.193924 -45.581415 -6.532145 -2.327212 -2.307398 -22.847440 1.224272 0.000000 0.000000 0.000000 26.708062 3.370428 -0.348379 49.246835 7.439971 -1.341396 1.429893 23.511242 1.027975 0.000000 0.000000 0.000000 
-0.002872 0.959809 0.001189 -1.264165 -6.729826 -0.498078 -0.205939 0.549403 5.397043 1.724180 -0.090570 -2.466687 -3.070762 -1.573888 11.398110 0.000000 0.000000 0.000000 2.062822 -0.088654 0.201592 -2.429711 0.462090 3.524101 5.863020 8.350735 7.810978 0.000000 0.000000 0.000000 4.879468 -0.402539 4.629971 -1.980359 1.020745 3.204514 -3.850017 3.627985 0.118934 7.886470 -3.970792 -12.449262 0.000000 0.000000 0.000000 -26.988469 -8.042079 1.621061 -45.319829 -7.183634 -2.236039 -2.590171 -22.279124 1.262970 0.000000 0.000000 0.000000 26.730979 3.459911 -0.152574 49.289733 7.607964 -1.480780 2.018726 23.773617 1.180647 0.000000 0.000000 0.000000 
-0.004599 0.960171 0.002245 -1.205067 -6.709200 -0.707097 -0.074746 0.652858 6.434829 1.619443 -0.046599 -3.147910 -3.152383 -2.064095 10.482596 0.000000 0.000000 0.000000 2.410000 -0.059174 -0.135975 -2.565511 0.543177 4.424200 5.403013 7.222054 7.971129 0.000000 0.000000 0.000000 4.724854 -0.426640 5.072757 -1.507930 0.791959 4.099034 -4.265438 3.561663 -0.640310 8.089568 -3.990048 -12.879218 0.000000 0.000000 0.000000 -27.156503 -8.179610 1.612833 -45.032013 -7.705920 -1.949758 -2.368848 -23.098531 1.252442 0.000000 0.000000 0.000000 26.941143 3.640556 -0.034381 48.894723 7.324820 -1.530324 2.057415 24.483877 1.224059 0.000000 0.000000 0.000000 
-0.006552 0.960179 0.003846 -1.151347 -6.667837 -0.838113 -0.432076 0.691091 6.603368 2.089146 -0.116533 -2.650303 -2.649755 -1.514561 9.610184 0.000000 0.000000 0.000000 2.859309 -0.021415 -0.545233 -2.970111 0.679966 5.496400 4.983803 6.416638 7.819939 0.000000 0.000000 0.000000 4.715750 -0.459952 5.534476 -1.434217 0.757472 4.361035 -4.375922 3.435082 -0.876375 8.174539 -4.099047 -12.536151 0.000000 0.000000 0.000000 -27.300083 -8.888102 2.058637 -44.525761 -8.081977 -1.775659 -2.375598 -23.404296 1.269864 0.000000 0.000000 0.000000 26.552246 3.826532 0.078206 49.103576 7.160940 -1.572104 1.802097 24.791413 1.185942 0.000000 0.000000 0.000000 
-0.009012 0.959737 0.006614 -1.103567 -6.553517 -1.143657 -0.354206 0.754576 7.233617 1.887815 -0.096270 -2.661033 -2.285713 -1.046857 9.086696 0.000000 0.000000 0.000000 3.186490 0.011158 -0.844072 -3.144064 0.776238 6.384412 4.770487 5.524035 8.460930 0.000000 0.000000 0.000000 4.688921 -0.519803 6.407098 -1.099892 0.569740 3.832688 -4.592480 3.320658 -0.622629 8.083823 -3.967065 -13.039536 0.000000 0.000000 0.000000 -27.504390 -9.416903 2.407148 -44.213055 -8.390612 -1.679017 -1.843603 -23.743587 1.181615 0.000000 0.000000 0.000000 26.744063 4.110628 0.247710 48.980051 6.927903 -1.688417 1.323795 25.309643 1.116686 0.000000 0.000000 0.000000 
-0.012139 0.958989 0.010607 -1.083235 -6.306766 -1.173994 -0.282223 0.786762 7.593597 1.975560 -0.089425 -2.934212 -2.191780 -0.813462 9.187738 0.000000 0.000000 0.000000 3.499807 0.073604 -1.369950 -3.349470 0.893501 7.425299 4.679640 5.075184 8.890795 0.000000 0.000000 0.000000 4.687298 -0.543108 6.712747 -0.912042 0.467287 3.837665 -4.721470 2.956489 -0.775970 8.275541 -4.068128 -13.200401 0.000000 0.000000 0.000000 -27.497841 -9.356490 2.437644 -43.999997 -8.601227 -1.606040 -1.771148 -24.184191 1.194559 0.000000 0.000000 0.000000 26.783651 3.849729 -0.000812 49.064434 6.480639 -1.829601 1.151199 25.787390 1.092324 0.000000 0.000000 0.000000 
-0.016131 0.957955 0.016021 -1.045574 -6.638608 -1.186177 -0.045995 0.775495 7.597037 1.813893 -0.107988 -2.293204 -1.994018 -0.551501 9.029043 0.000000 0.000000 0.000000 3.776655 0.060923 -1.315762 -3.437303 0.962982 8.066900 4.473060 5.052930 8.199149 0.000000 0.000000 0.000000 4.687571 -0.567949 7.077314 -1.014660 0.526728 3.898906 -4.386625 2.694062 -1.070324 8.009352 -3.856209 -13.620827 0.000000 0.000000 0.000000 -27.169924 -9.620145 2.788128 -44.230084 -8.557836 -1.662139 -1.666136 -24.712124 1.216283 0.000000 0.000000 0.000000 26.435634 3.513113 -0.387283 49.678300 5.838752 -2.019033 0.886575 26.913417 1.055140 0.000000 0.000000 0.000000 
-0.021005 0.957062 0.023077 -1.099032 -6.872036 -1.365967 0.066703 0.816852 8.023878 2.164044 -0.167123 -1.857280 -1.838861 -0.339015 8.911796 0.000000 0.000000 0.000000 4.303080 -0.000669 -0.906970 -3.660822 1.044864 8.550793 4.219675 4.794677 7.723971 0.000000 0.000000 0.000000 4.767266 -0.607575 7.605526 -1.012893 0.527214 3.766786 -4.084489 2.471048 -1.013452 7.840920 -3.674977 -14.304778 0.000000 0.000000 0.000000 -27.249745 -9.391091 2.801328 -43.989234 -8.721276 -1.651436 -1.683883 -25.241840 1.264462 0.000000 0.000000 0.000000 26.680390 3.672831 -0.455934 49.415350 5.322212 -2.178000 0.646231 27.818977 1.013777 0.000000 0.000000 0.000000 
-0.026577 0.955904 0.031672 -1.341166 -7.479950 -1.797491 0.222005 0.819189 8.069573 2.306936 -0.324603 0.827648 -0.745036 0.889555 6.797072 0.000000 0.000000 0.000000 4.813152 -0.104700 -0.195865 -3.909004 1.130057 8.970887 4.734043 5.829971 7.746384 0.000000 0.000000 0.000000 5.055332 -0.666613 8.289203 -1.229218 0.653542 3.994290 -3.759973 2.541525 -1.541842 7.669024 -3.482022 -14.874509 0.000000 0.000000 0.000000 -27.036916 -9.557504 2.966359 -44.144455 -8.280850 -1.794718 -1.215357 -25.925440 1.195349 0.000000 0.000000 0.000000 26.154722 3.274484 -0.774058 50.240552 4.854979 -2.333482 -0.102671 28.153144 0.829834 0.000000 0.000000 0.000000 
-0.032468 0.954367 0.041488 -1.667885 -7.785177 -2.383770 0.987587 0.664595 6.973281 1.949001 -0.497800 5.920124 -0.301248 1.005332 4.619052 0.000000 0.000000 0.000000 5.446816 -0.276667 0.976992 -3.792603 1.112457 8.987479 4.673914 5.589094 7.850745 0.000000 0.000000 0.000000 5.458380 -0.754954 9.262193 -1.385421 0.734538 3.766047 -3.690495 2.636340 -1.247722 7.516396 -3.363438 -15.171562 0.000000 0.000000 0.000000 -26.837465 -9.445817 2.927304 -44.061401 -8.075524 -1.901973 -1.570100 -26.320821 1.300054 0.000000 0.000000 0.000000 26.128241 3.061428 -0.918515 50.859809 5.146530 -2.269937 -0.575511 28.417653 0.724878 0.000000 0.000000 0.000000 
-0.038229 0.952176 0.051837 -1.852585 -7.237135 -2.379118 1.574103 0.253671 2.828831 1.323283 -0.643572 15.034903 0.334527 1.715125 2.836906 0.000000 0.000000 0.000000 5.901790 -0.375307 1.582809 -3.474581 1.107574 9.612316 3.960081 5.041949 6.473729 0.000000 0.000000 0.000000 5.557630 -0.817439 9.904387 -1.444379 0.755683 3.677600 -3.469375 2.862436 -1.223723 7.113945 -2.975118 -15.905084 0.000000 0.000000 0.000000 -26.870676 -9.173748 2.587230 -44.367662 -7.995293 -1.891600 -1.280460 -26.349468 1.213123 0.000000 0.000000 0.000000 26.344562 2.805662 -0.934659 50.654688 5.132577 -2.315025 -0.796381 28.226812 0.697995 0.000000 0.000000 0.000000 
-0.042728 0.949698 0.064032 -2.488096 -7.945619 -2.366353 2.870894 -0.150140 -2.662873 0.038820 -0.264265 27.218618 0.709262 2.382338 2.568357 0.000000 0.000000 0.000000 6.855459 -0.527788 2.361711 -3.873265 1.269879 10.502568 3.884575 6.154739 4.611824 0.000000 0.000000 0.000000 6.463771 -0.925111 10.411530 -1.315239 0.686610 3.173413 -3.870897 4.371201 -0.496684 7.086451 -2.707007 -16.992976 0.000000 0.000000 0.000000 -26.896061 -8.916745 1.978905 -44.729480 -7.018418 -2.178305 -1.004765 -28.142443 1.165962 0.000000 0.000000 0.000000 26.345409 2.924239 -0.375581 49.959335 5.685578 -2.270871 -0.450779 27.628796 0.848602 0.000000 0.000000 0.000000 
-0.045740 0.947245 0.079870 -2.396008 -7.692488 -2.731804 2.629189 -0.541152 -8.685025 -0.591844 0.175848 37.968797 1.568808 5.306318 6.885700 0.000000 0.000000 0.000000 6.696686 -0.754608 3.989296 -3.588644 1.202045 10.400565 3.458103 5.990241 3.513033 0.000000 0.000000 0.000000 6.600441 -0.988162 11.107374 -1.244837 0.644308 3.089387 -3.624797 5.310393 -0.287535 6.172152 -1.899367 -18.292273 0.000000 0.000000 0.000000 -28.010242 -8.461150 1.253014 -44.261060 -6.387525 -2.266312 -1.473466 -28.894385 1.256705 0.000000 0.000000 0.000000 26.249051 2.876952 -0.033603 48.839932 6.079468 -2.206306 0.830233 26.841259 1.156231 0.000000 0.000000 0.000000 
-0.047297 0.946272 0.100435 -2.297945 -8.196083 -3.108119 2.901552 -0.812285 -14.605407 -2.209423 1.318494 43.517142 2.988931 8.759100 11.521244 0.000000 0.000000 0.000000 6.732020 -1.121534 6.581359 -4.119699 1.172771 9.007247 3.363680 6.010560 3.130194 0.000000 0.000000 0.000000 6.751164 -1.063631 12.068265 -1.822645 0.918976 1.801983 -2.958992 7.149776 0.528142 6.060184 -1.704248 -18.386702 0.000000 0.000000 0.000000 -27.819859 -8.080054 0.515205 -45.265043 -4.953296 -2.755738 -3.002879 -29.902936 1.615433 0.000000 0.000000 0.000000 25.454098 3.041648 0.612013 48.702045 6.644471 -2.198308 0.855710 26.326902 1.216034 0.000000 0.000000 0.000000 
-0.048092 0.945483 0.125583 -1.822329 -8.016049 -3.471016 2.925011 -0.987659 -18.665308 -3.038834 1.547145 40.699290 3.579088 9.272341 9.121861 0.000000 0.000000 0.000000 6.020041 -1.376590 8.932984 -4.310778 1.102474 7.916543 3.693922 6.158326 3.963174 0.000000 0.000000 0.000000 6.496363 -1.059282 12.385967 -1.904346 0.941425 1.017871 -3.332730 8.901910 1.643552 6.221716 -1.515420 -19.143535 0.000000 0.000000 0.000000 -27.821450 -7.724928 -0.368129 -45.739117 -3.835271 -3.089333 -3.404827 -29.726482 1.604964 0.000000 0.000000 0.000000 25.778578 2.307960 0.828125 48.432181 7.280420 -2.251973 0.775332 24.947176 1.218330 0.000000 0.000000 0.000000 
-0.047902 0.943262 0.154977 -1.206811 -8.435301 -3.144904 2.867536 -1.076865 -21.127366 -2.741849 0.834493 27.711015 3.933817 10.426611 14.336325 0.000000 0.000000 0.000000 5.074504 -1.526786 10.972848 -4.464918 1.034430 6.929677 3.598060 6.045492 3.751634 0.000000 0.000000 0.000000 5.942307 -1.024067 12.671096 -2.670019 1.328977 1.082637 -3.185016 10.276778 0.859430 5.911185 -1.128621 -19.661812 0.000000 0.000000 0.000000 -28.476507 -6.563466 -1.651020 -45.147822 -2.356383 -3.360487 -4.699933 -29.419349 1.841817 0.000000 0.000000 0.000000 26.013984 2.022350 1.014713 48.821577 6.985413 -2.421065 0.343379 23.958139 1.115677 0.000000 0.000000 0.000000 
-0.047083 0.937546 0.188460 -0.894271 -8.677150 -3.148124 2.550692 -1.168007 -22.224916 -0.847621 -0.038644 12.658797 1.249182 8.209772 25.215656 0.000000 0.000000 0.000000 4.587068 -1.696554 13.065291 -5.073088 1.142189 7.027445 3.401041 6.055038 3.087958 0.000000 0.000000 0.000000 5.572774 -0.980543 12.642853 -3.133398 1.574791 1.372634 -3.218147 11.539664 0.539578 5.985165 -0.864051 -20.865242 0.000000 0.000000 0.000000 -28.029557 -6.003317 -2.387413 -45.447127 -1.392316 -3.607222 -5.638688 -28.728862 1.956152 0.000000 0.000000 0.000000 25.924981 1.549316 1.102367 49.706659 7.626681 -2.259260 1.057118 21.986931 1.162108 0.000000 0.000000 0.000000 
